<?xml version="1.0" encoding="iso-8859-1"?>
<!-- Generator: Adobe Illustrator 19.0.0, SVG Export Plug-In . SVG Version: 6.00 Build 0)  -->
<svg version="1.1" id="Capa_1" xmlns="http://www.w3.org/2000/svg" xmlns:xlink="http://www.w3.org/1999/xlink" x="0px" y="0px"
	 viewBox="0 0 225.81 225.81" style="enable-background:new 0 0 225.81 225.81;" xml:space="preserve">
<path d="M191.573,89.118l-18.381-25.734c-3.4-4.738-10.633-8.574-16.465-8.574h-7.305c8.689-5,14.53-14.499,14.53-25.313
	C163.952,13.197,150.692,0,134.393,0s-29.559,13.166-29.559,29.465c0,10.814,5.841,20.345,14.53,25.345h-8.173
	c-5.833,0-13.065,3.836-16.465,8.574l-3.571,4.987c-0.238-0.061-0.492-0.119-0.718-0.183c-1.065-0.42-3.473-2.963-4.766-4.33
	c-0.752-0.794-1.527-1.613-2.318-2.388c-1.307-1.412-4.285-3.987-8.61-3.987c-4.324,0-7.314,2.583-8.61,3.974
	c-0.823,0.807-1.624,1.658-2.401,2.484c-1.26,1.34-3.604,3.834-4.571,4.228c-4.146,1.178-10.311,1.891-17.995,2.118
	c-9.451,0.28-9.727,8.944-9.727,9.032v51.02c0,21.535,22.907,37.625,36.577,45.349c1.343,0.81,3.897,2.013,6.731,2.013
	c2.857,0,5.321-1.2,6.698-2.067c7.386-4.184,20.997-12.98,29.286-24.946l0.163,55.999c0.015,10.583,8.727,19.125,19.311,19.125
	h8.429c10.585,0,19.204-8.541,19.213-19.125l0.06-63.388c2.769-1.097,4.971-3.294,6.053-6.071c5.23-0.506,11.28-4.154,14.236-8.738
	l13.823-21.43C195.319,101.942,195.123,94.064,191.573,89.118z M99.439,130.338c0,9.923-12.963,21.144-24.986,28.365
	c-12.035-7.229-25.014-18.453-25.014-28.365V87.856c4-0.364,9.808-1.048,14.474-2.374c4.438-1.261,7.938-4.175,10.752-7.021
	c2.841,2.85,6.153,5.763,10.583,7.021c4.667,1.326,10.191,2.011,14.191,2.374V130.338z M171.244,106.041l-6.805,9.396V86.401
	l6.488,8.395C173.194,97.749,173.396,103.003,171.244,106.041z"/>
<g>
</g>
<g>
</g>
<g>
</g>
<g>
</g>
<g>
</g>
<g>
</g>
<g>
</g>
<g>
</g>
<g>
</g>
<g>
</g>
<g>
</g>
<g>
</g>
<g>
</g>
<g>
</g>
<g>
</g>
</svg>
